<svg width="1440" height="592" viewBox="0 0 1440 592" fill="none" xmlns="http://www.w3.org/2000/svg">
<path d="M290.19 338.111C290.189 338.525 290.064 338.93 289.833 339.273C289.602 339.617 289.274 339.884 288.891 340.041C288.508 340.199 288.087 340.239 287.681 340.157C287.276 340.076 286.903 339.875 286.611 339.582C286.319 339.289 286.12 338.915 286.04 338.509C285.959 338.103 286.001 337.682 286.16 337.3C286.319 336.917 286.588 336.59 286.932 336.36C287.276 336.131 287.681 336.008 288.095 336.008C288.371 336.008 288.644 336.062 288.899 336.168C289.153 336.274 289.385 336.429 289.579 336.624C289.774 336.82 289.928 337.052 290.033 337.307C290.138 337.562 290.191 337.835 290.19 338.111ZM299.298 336.008C298.883 336.014 298.48 336.143 298.138 336.378C297.796 336.613 297.532 336.943 297.377 337.328C297.223 337.713 297.186 338.135 297.271 338.541C297.355 338.946 297.558 339.318 297.853 339.609C298.149 339.9 298.523 340.097 298.93 340.176C299.337 340.255 299.759 340.211 300.141 340.051C300.523 339.891 300.85 339.621 301.08 339.276C301.309 338.931 301.432 338.526 301.432 338.111C301.433 337.832 301.378 337.555 301.271 337.298C301.164 337.04 301.006 336.806 300.807 336.61C300.609 336.414 300.373 336.26 300.113 336.157C299.854 336.053 299.577 336.003 299.298 336.008ZM310.492 336.008C310.076 336.006 309.668 336.128 309.322 336.359C308.975 336.589 308.704 336.917 308.544 337.301C308.383 337.685 308.34 338.108 308.421 338.517C308.501 338.925 308.701 339.301 308.994 339.596C309.288 339.891 309.663 340.092 310.071 340.173C310.479 340.255 310.902 340.214 311.287 340.055C311.672 339.896 312.001 339.627 312.232 339.281C312.464 338.934 312.587 338.527 312.587 338.111C312.588 337.835 312.535 337.562 312.43 337.307C312.325 337.052 312.171 336.82 311.976 336.624C311.782 336.429 311.55 336.274 311.296 336.168C311.041 336.062 310.768 336.008 310.492 336.008ZM321.687 336.008C321.271 336.008 320.864 336.131 320.518 336.362C320.173 336.593 319.903 336.922 319.744 337.306C319.585 337.691 319.543 338.114 319.624 338.522C319.705 338.929 319.906 339.304 320.2 339.598C320.494 339.893 320.868 340.093 321.276 340.174C321.684 340.255 322.107 340.214 322.491 340.054C322.876 339.895 323.204 339.626 323.435 339.28C323.666 338.934 323.79 338.527 323.79 338.111C323.79 337.835 323.735 337.561 323.63 337.306C323.524 337.051 323.369 336.819 323.174 336.624C322.978 336.429 322.747 336.274 322.491 336.168C322.236 336.062 321.963 336.008 321.687 336.008ZM332.889 340.207C333.306 340.208 333.713 340.086 334.06 339.855C334.408 339.625 334.678 339.296 334.838 338.912C334.999 338.527 335.041 338.104 334.96 337.695C334.879 337.286 334.679 336.911 334.384 336.616C334.089 336.321 333.714 336.121 333.305 336.04C332.897 335.959 332.473 336.001 332.089 336.162C331.704 336.322 331.376 336.593 331.145 336.94C330.915 337.287 330.793 337.695 330.794 338.111C330.794 338.667 331.015 339.2 331.408 339.593C331.801 339.986 332.334 340.207 332.889 340.207ZM288.095 347.236C287.681 347.236 287.276 347.359 286.931 347.589C286.587 347.819 286.318 348.147 286.159 348.529C286.001 348.912 285.959 349.334 286.04 349.74C286.121 350.147 286.321 350.52 286.614 350.813C286.907 351.106 287.28 351.306 287.686 351.386C288.093 351.467 288.514 351.426 288.897 351.267C289.28 351.109 289.607 350.84 289.837 350.495C290.067 350.151 290.19 349.746 290.19 349.331C290.19 348.776 289.969 348.243 289.576 347.85C289.184 347.457 288.651 347.236 288.095 347.236ZM299.298 347.236C298.884 347.244 298.482 347.374 298.142 347.61C297.802 347.846 297.54 348.177 297.388 348.562C297.236 348.947 297.202 349.368 297.289 349.773C297.376 350.177 297.581 350.547 297.878 350.835C298.175 351.123 298.551 351.317 298.957 351.392C299.364 351.467 299.784 351.419 300.164 351.256C300.544 351.093 300.867 350.821 301.093 350.474C301.319 350.127 301.437 349.721 301.432 349.308C301.43 349.031 301.373 348.757 301.264 348.502C301.155 348.248 300.997 348.018 300.798 347.825C300.6 347.632 300.365 347.481 300.107 347.38C299.849 347.278 299.574 347.23 299.298 347.236ZM310.492 347.236C310.078 347.236 309.673 347.359 309.328 347.589C308.984 347.819 308.715 348.147 308.557 348.529C308.398 348.912 308.356 349.334 308.437 349.74C308.518 350.147 308.718 350.52 309.011 350.813C309.304 351.106 309.677 351.306 310.083 351.386C310.49 351.467 310.911 351.426 311.294 351.267C311.677 351.109 312.004 350.84 312.234 350.495C312.464 350.151 312.587 349.746 312.587 349.331C312.588 349.056 312.535 348.783 312.43 348.528C312.325 348.274 312.171 348.042 311.976 347.847C311.781 347.653 311.55 347.498 311.295 347.393C311.04 347.288 310.768 347.235 310.492 347.236ZM321.687 347.236C321.273 347.237 320.868 347.362 320.525 347.593C320.181 347.824 319.914 348.152 319.757 348.535C319.599 348.918 319.559 349.339 319.641 349.745C319.723 350.151 319.923 350.523 320.216 350.816C320.509 351.108 320.883 351.307 321.289 351.387C321.695 351.467 322.116 351.425 322.498 351.266C322.88 351.108 323.207 350.839 323.437 350.495C323.667 350.15 323.79 349.745 323.79 349.331C323.79 349.055 323.735 348.782 323.629 348.528C323.524 348.273 323.369 348.042 323.173 347.847C322.978 347.652 322.746 347.498 322.491 347.393C322.236 347.288 321.962 347.235 321.687 347.236ZM332.889 347.236C332.475 347.236 332.07 347.359 331.725 347.589C331.381 347.819 331.112 348.147 330.954 348.529C330.795 348.912 330.754 349.334 330.834 349.74C330.915 350.147 331.115 350.52 331.408 350.813C331.701 351.106 332.074 351.306 332.48 351.386C332.887 351.467 333.308 351.426 333.691 351.267C334.074 351.109 334.401 350.84 334.631 350.495C334.861 350.151 334.984 349.746 334.984 349.331C334.985 349.056 334.932 348.783 334.827 348.528C334.722 348.274 334.568 348.042 334.373 347.847C334.178 347.653 333.947 347.498 333.692 347.393C333.437 347.288 333.165 347.235 332.889 347.236ZM288.095 358.409C287.681 358.409 287.276 358.531 286.931 358.762C286.587 358.992 286.318 359.319 286.159 359.702C286.001 360.085 285.959 360.506 286.04 360.913C286.121 361.319 286.321 361.693 286.614 361.986C286.907 362.279 287.28 362.478 287.686 362.559C288.093 362.64 288.514 362.598 288.897 362.44C289.28 362.281 289.607 362.013 289.837 361.668C290.067 361.323 290.19 360.918 290.19 360.504C290.19 359.948 289.969 359.415 289.576 359.022C289.184 358.629 288.651 358.409 288.095 358.409ZM299.298 358.409C298.885 358.416 298.484 358.546 298.145 358.781C297.805 359.016 297.543 359.346 297.39 359.729C297.238 360.113 297.202 360.533 297.287 360.936C297.372 361.34 297.575 361.71 297.87 361.999C298.164 362.288 298.537 362.484 298.943 362.561C299.348 362.639 299.767 362.595 300.148 362.436C300.528 362.276 300.853 362.008 301.082 361.664C301.31 361.32 301.432 360.917 301.432 360.504C301.432 360.225 301.377 359.95 301.269 359.693C301.161 359.436 301.003 359.203 300.805 359.008C300.606 358.813 300.37 358.66 300.111 358.557C299.853 358.454 299.576 358.403 299.298 358.409ZM310.492 358.409C310.078 358.409 309.673 358.531 309.328 358.762C308.984 358.992 308.715 359.319 308.557 359.702C308.398 360.085 308.356 360.506 308.437 360.913C308.518 361.319 308.718 361.693 309.011 361.986C309.304 362.279 309.677 362.478 310.083 362.559C310.49 362.64 310.911 362.598 311.294 362.44C311.677 362.281 312.004 362.013 312.234 361.668C312.464 361.323 312.587 360.918 312.587 360.504C312.587 359.948 312.366 359.415 311.974 359.022C311.581 358.629 311.048 358.409 310.492 358.409ZM321.687 358.409C321.273 358.41 320.868 358.534 320.525 358.766C320.181 358.997 319.914 359.325 319.757 359.708C319.599 360.091 319.559 360.512 319.641 360.918C319.723 361.324 319.923 361.696 320.216 361.988C320.509 362.281 320.883 362.479 321.289 362.56C321.695 362.64 322.116 362.598 322.498 362.439C322.88 362.28 323.207 362.012 323.437 361.667C323.667 361.323 323.79 360.918 323.79 360.504C323.79 360.228 323.735 359.955 323.629 359.7C323.524 359.446 323.369 359.214 323.173 359.019C322.978 358.825 322.746 358.671 322.491 358.566C322.236 358.461 321.962 358.408 321.687 358.409ZM332.889 358.409C332.475 358.409 332.07 358.531 331.725 358.762C331.381 358.992 331.112 359.319 330.954 359.702C330.795 360.085 330.754 360.506 330.834 360.913C330.915 361.319 331.115 361.693 331.408 361.986C331.701 362.279 332.074 362.478 332.48 362.559C332.887 362.64 333.308 362.598 333.691 362.44C334.074 362.281 334.401 362.013 334.631 361.668C334.861 361.323 334.984 360.918 334.984 360.504C334.984 359.948 334.763 359.415 334.371 359.022C333.978 358.629 333.445 358.409 332.889 358.409ZM288.095 369.613C287.682 369.613 287.279 369.735 286.935 369.963C286.592 370.192 286.323 370.517 286.164 370.898C286.004 371.278 285.96 371.697 286.038 372.103C286.116 372.508 286.311 372.881 286.6 373.176C286.889 373.471 287.259 373.673 287.663 373.758C288.066 373.844 288.486 373.808 288.87 373.655C289.253 373.503 289.583 373.24 289.818 372.901C290.053 372.562 290.182 372.16 290.19 371.748C290.195 371.469 290.145 371.193 290.042 370.934C289.939 370.675 289.786 370.439 289.591 370.24C289.396 370.042 289.163 369.884 288.906 369.776C288.649 369.668 288.374 369.613 288.095 369.613ZM299.298 369.613C298.887 369.621 298.487 369.749 298.149 369.982C297.81 370.216 297.548 370.543 297.394 370.924C297.241 371.306 297.203 371.724 297.285 372.126C297.367 372.529 297.565 372.899 297.856 373.19C298.147 373.48 298.516 373.679 298.919 373.761C299.322 373.843 299.74 373.805 300.121 373.651C300.502 373.498 300.829 373.235 301.063 372.897C301.296 372.558 301.424 372.159 301.432 371.748C301.439 371.466 301.388 371.185 301.283 370.923C301.178 370.661 301.021 370.423 300.821 370.224C300.622 370.024 300.384 369.867 300.122 369.762C299.86 369.657 299.58 369.606 299.298 369.613ZM310.492 369.613C310.079 369.613 309.676 369.735 309.332 369.963C308.989 370.192 308.72 370.517 308.561 370.898C308.401 371.278 308.357 371.697 308.435 372.103C308.513 372.508 308.708 372.881 308.997 373.176C309.286 373.471 309.656 373.673 310.06 373.758C310.463 373.844 310.883 373.808 311.267 373.655C311.65 373.503 311.98 373.24 312.215 372.901C312.45 372.562 312.579 372.16 312.587 371.748C312.593 371.469 312.544 371.192 312.441 370.933C312.339 370.673 312.185 370.437 311.99 370.238C311.795 370.039 311.562 369.881 311.304 369.774C311.047 369.667 310.771 369.612 310.492 369.613ZM321.687 369.613C321.274 369.614 320.872 369.738 320.529 369.967C320.187 370.197 319.919 370.522 319.761 370.903C319.602 371.284 319.56 371.703 319.638 372.108C319.717 372.512 319.913 372.885 320.203 373.179C320.492 373.473 320.862 373.674 321.265 373.759C321.669 373.844 322.088 373.807 322.471 373.654C322.854 373.502 323.184 373.239 323.418 372.9C323.653 372.561 323.782 372.16 323.79 371.748C323.795 371.469 323.744 371.191 323.641 370.932C323.537 370.673 323.383 370.437 323.187 370.238C322.991 370.039 322.758 369.881 322.5 369.774C322.242 369.666 321.966 369.612 321.687 369.613ZM332.889 369.613C332.477 369.613 332.073 369.735 331.729 369.963C331.386 370.192 331.117 370.517 330.958 370.898C330.798 371.278 330.754 371.697 330.832 372.103C330.91 372.508 331.105 372.881 331.394 373.176C331.683 373.471 332.053 373.673 332.457 373.758C332.861 373.844 333.28 373.808 333.664 373.655C334.047 373.503 334.377 373.24 334.612 372.901C334.847 372.562 334.976 372.16 334.984 371.748C334.991 371.469 334.941 371.192 334.838 370.933C334.736 370.673 334.582 370.437 334.387 370.238C334.192 370.039 333.959 369.881 333.701 369.774C333.444 369.667 333.168 369.612 332.889 369.613ZM288.095 380.809C287.681 380.809 287.276 380.932 286.931 381.162C286.587 381.393 286.318 381.72 286.159 382.103C286.001 382.486 285.959 382.907 286.04 383.313C286.121 383.72 286.321 384.093 286.614 384.386C286.907 384.679 287.28 384.879 287.686 384.96C288.093 385.041 288.514 384.999 288.897 384.841C289.28 384.682 289.607 384.413 289.837 384.069C290.067 383.724 290.19 383.319 290.19 382.905C290.19 382.349 289.969 381.816 289.576 381.423C289.184 381.03 288.651 380.809 288.095 380.809ZM299.298 380.809C298.885 380.817 298.484 380.947 298.145 381.181C297.805 381.416 297.543 381.746 297.39 382.13C297.238 382.513 297.202 382.933 297.287 383.337C297.372 383.741 297.575 384.111 297.87 384.4C298.164 384.689 298.537 384.884 298.943 384.962C299.348 385.04 299.767 384.996 300.148 384.836C300.528 384.677 300.853 384.408 301.082 384.065C301.31 383.721 301.432 383.317 301.432 382.905C301.432 382.626 301.377 382.35 301.269 382.094C301.161 381.837 301.003 381.604 300.805 381.409C300.606 381.214 300.37 381.06 300.111 380.957C299.853 380.854 299.576 380.804 299.298 380.809ZM310.492 380.809C310.078 380.809 309.673 380.932 309.328 381.162C308.984 381.393 308.715 381.72 308.557 382.103C308.398 382.486 308.356 382.907 308.437 383.313C308.518 383.72 308.718 384.093 309.011 384.386C309.304 384.679 309.677 384.879 310.083 384.96C310.49 385.041 310.911 384.999 311.294 384.841C311.677 384.682 312.004 384.413 312.234 384.069C312.464 383.724 312.587 383.319 312.587 382.905C312.587 382.349 312.366 381.816 311.974 381.423C311.581 381.03 311.048 380.809 310.492 380.809ZM321.687 380.809C321.273 380.811 320.868 380.935 320.525 381.166C320.181 381.397 319.914 381.725 319.757 382.108C319.599 382.491 319.559 382.912 319.641 383.318C319.723 383.724 319.923 384.097 320.216 384.389C320.509 384.681 320.883 384.88 321.289 384.96C321.695 385.041 322.116 384.999 322.498 384.84C322.88 384.681 323.207 384.412 323.437 384.068C323.667 383.724 323.79 383.319 323.79 382.905C323.79 382.629 323.735 382.356 323.629 382.101C323.524 381.846 323.369 381.615 323.173 381.42C322.978 381.226 322.746 381.071 322.491 380.966C322.236 380.862 321.962 380.808 321.687 380.809ZM332.889 380.809C332.475 380.809 332.07 380.932 331.725 381.162C331.381 381.393 331.112 381.72 330.954 382.103C330.795 382.486 330.754 382.907 330.834 383.313C330.915 383.72 331.115 384.093 331.408 384.386C331.701 384.679 332.074 384.879 332.48 384.96C332.887 385.041 333.308 384.999 333.691 384.841C334.074 384.682 334.401 384.413 334.631 384.069C334.861 383.724 334.984 383.319 334.984 382.905C334.984 382.349 334.763 381.816 334.371 381.423C333.978 381.03 333.445 380.809 332.889 380.809Z" fill="#3046D2"/>
<path d="M631.43 491L633.51 493.76L549 557.41L547 554.65L631.43 491ZM561.25 562.23L634.76 506.83L632.68 504.06L559.17 559.41L561.25 562.23ZM573.46 567.02L636 519.89L633.91 517.12L571.38 564.26L573.46 567.02ZM585.68 571.84L637.26 532.96L635.17 530.19L583.59 569.06L585.68 571.84ZM597.9 576.63L638.52 546.02L636.42 543.25L595.8 573.86L597.9 576.63ZM610.1 581.41L639.75 559.07L637.67 556.3L608 578.67L610.1 581.41ZM622.33 586.22L641 572.16L638.92 569.41L620.24 583.46L622.33 586.22ZM634.53 591.02L642.26 585.2L640.18 582.44L632.45 588.26L634.53 591.02Z" fill="#435AA8"/>
<path d="M1393.27 261L1289 440.42L1521.56 424.17L1393.27 261ZM1395.84 297.93L1480.98 406.26L1326.63 417.05L1395.84 297.93Z" fill="#36BA8B"/>
<path d="M-6 254.17L145.86 204.83L27.2 98L-6 254.17ZM-3.59003 251.49L28.32 101.42L142.32 204.08L-3.59003 251.49ZM2.02997 245.25L134.12 202.34L30.86 109.39L2.02997 245.25ZM4.45001 242.58L32.02 112.83L130.61 201.59L4.45001 242.58ZM10.05 236.34L122.39 199.84L34.61 120.84L10.05 236.34ZM12.46 233.67L35.73 124.24L118.86 199.1L12.46 233.67ZM18.08 227.43L110.66 197.35L38.32 132.22L18.08 227.43ZM20.49 224.75L39.43 135.64L107.13 196.64L20.49 224.75ZM26.1 218.52L98.92 194.85L42.03 143.62L26.1 218.52ZM28.51 215.84L43.14 147.05L95.4 194.1L28.51 215.84ZM34.13 209.61L87.19 192.36L45.74 155L34.13 209.61ZM36.54 206.93L46.86 158.46L83.69 191.62L36.54 206.93ZM42.16 200.69L75.46 189.87L49.46 166.43L42.16 200.69ZM44.57 198.01L50.57 169.85L71.96 189.12L44.57 198.01Z" fill="#435AA8"/>
<path d="M273.93 497.73L189.93 386.21L328.52 369.21L273.93 497.73ZM274.98 506.27L335.36 364L182 382.85L275 506.27H274.98Z" fill="#F15B40"/>
<path d="M919.18 561.11L1034.58 460.78L890 411L919.18 561.11Z" fill="#FBAE24"/>
<path d="M1121.26 249.678C1120.56 250.609 1120.15 251.727 1120.09 252.89C1120.02 254.054 1120.3 255.21 1120.89 256.214C1121.48 257.218 1122.36 258.024 1123.41 258.531C1124.46 259.037 1125.63 259.221 1126.79 259.059C1127.94 258.897 1129.02 258.397 1129.89 257.621C1130.76 256.846 1131.38 255.83 1131.67 254.702C1131.97 253.574 1131.92 252.385 1131.53 251.284C1131.15 250.184 1130.45 249.222 1129.52 248.52C1128.9 248.054 1128.2 247.714 1127.45 247.519C1126.7 247.325 1125.92 247.281 1125.15 247.388C1124.38 247.496 1123.65 247.753 1122.98 248.146C1122.31 248.539 1121.73 249.06 1121.26 249.678ZM1076.47 273.555C1075.77 274.484 1075.36 275.601 1075.3 276.764C1075.23 277.926 1075.51 279.082 1076.1 280.084C1076.69 281.087 1077.57 281.892 1078.62 282.397C1079.67 282.902 1080.84 283.085 1082 282.922C1083.15 282.759 1084.23 282.258 1085.09 281.482C1085.96 280.706 1086.58 279.69 1086.87 278.562C1087.16 277.435 1087.11 276.247 1086.72 275.148C1086.34 274.049 1085.64 273.09 1084.71 272.39C1084.09 271.926 1083.39 271.587 1082.64 271.394C1081.89 271.201 1081.11 271.157 1080.35 271.265C1079.58 271.373 1078.85 271.631 1078.18 272.024C1077.52 272.417 1076.94 272.937 1076.47 273.555ZM1102.58 274.474C1101.89 275.404 1101.48 276.52 1101.41 277.682C1101.35 278.844 1101.63 279.999 1102.22 281.001C1102.81 282.003 1103.68 282.808 1104.73 283.313C1105.78 283.818 1106.96 284.001 1108.11 283.839C1109.26 283.676 1110.34 283.176 1111.21 282.401C1112.07 281.626 1112.69 280.611 1112.98 279.485C1113.28 278.358 1113.23 277.171 1112.84 276.072C1112.46 274.974 1111.76 274.013 1110.83 273.313C1110.21 272.847 1109.51 272.508 1108.76 272.314C1108.01 272.121 1107.23 272.076 1106.47 272.184C1105.7 272.292 1104.96 272.55 1104.3 272.943C1103.63 273.336 1103.05 273.856 1102.58 274.474ZM1113.83 223.97C1113.13 224.9 1112.72 226.017 1112.66 227.178C1112.59 228.34 1112.87 229.495 1113.46 230.497C1114.05 231.5 1114.93 232.304 1115.98 232.809C1117.03 233.314 1118.2 233.497 1119.35 233.335C1120.5 233.173 1121.58 232.672 1122.45 231.898C1123.32 231.123 1123.94 230.108 1124.23 228.981C1124.52 227.855 1124.47 226.667 1124.09 225.569C1123.7 224.47 1123 223.51 1122.08 222.809C1121.46 222.343 1120.75 222.002 1120.01 221.808C1119.26 221.614 1118.48 221.569 1117.71 221.677C1116.94 221.785 1116.21 222.043 1115.54 222.437C1114.88 222.83 1114.29 223.351 1113.83 223.97ZM1095.16 248.751C1094.46 249.68 1094.05 250.797 1093.98 251.96C1093.92 253.123 1094.2 254.279 1094.79 255.283C1095.38 256.286 1096.25 257.092 1097.3 257.598C1098.35 258.104 1099.53 258.287 1100.68 258.125C1101.83 257.962 1102.91 257.461 1103.78 256.685C1104.65 255.908 1105.27 254.892 1105.56 253.764C1105.85 252.636 1105.8 251.448 1105.41 250.349C1105.02 249.25 1104.32 248.29 1103.39 247.591C1102.14 246.656 1100.58 246.253 1099.04 246.471C1097.49 246.688 1096.1 247.508 1095.16 248.751ZM1128.5 273.884C1127.8 274.814 1127.39 275.93 1127.32 277.092C1127.26 278.254 1127.54 279.409 1128.13 280.411C1128.72 281.413 1129.6 282.218 1130.65 282.723C1131.69 283.228 1132.87 283.411 1134.02 283.249C1135.17 283.086 1136.25 282.586 1137.12 281.811C1137.99 281.036 1138.61 280.022 1138.9 278.895C1139.19 277.769 1139.14 276.581 1138.76 275.482C1138.37 274.384 1137.67 273.424 1136.74 272.723C1136.13 272.257 1135.42 271.918 1134.67 271.724C1133.92 271.531 1133.14 271.487 1132.38 271.594C1131.61 271.702 1130.88 271.96 1130.21 272.353C1129.54 272.746 1128.96 273.266 1128.5 273.884ZM1154.61 274.797C1153.9 275.727 1153.49 276.846 1153.43 278.009C1153.36 279.173 1153.64 280.331 1154.23 281.335C1154.82 282.34 1155.7 283.147 1156.75 283.653C1157.8 284.159 1158.98 284.343 1160.13 284.18C1161.29 284.018 1162.37 283.516 1163.24 282.74C1164.11 281.963 1164.73 280.946 1165.02 279.817C1165.31 278.688 1165.26 277.498 1164.87 276.398C1164.49 275.297 1163.78 274.336 1162.85 273.636C1161.6 272.697 1160.03 272.292 1158.49 272.51C1156.94 272.728 1155.55 273.55 1154.61 274.797ZM1135.88 299.613C1135.18 300.544 1134.77 301.662 1134.7 302.825C1134.63 303.988 1134.92 305.145 1135.51 306.149C1136.1 307.153 1136.97 307.959 1138.02 308.465C1139.07 308.972 1140.25 309.156 1141.4 308.994C1142.56 308.832 1143.64 308.332 1144.51 307.556C1145.38 306.781 1146 305.765 1146.29 304.637C1146.58 303.509 1146.53 302.319 1146.15 301.219C1145.76 300.119 1145.06 299.157 1144.13 298.455C1142.89 297.522 1141.33 297.117 1139.79 297.331C1138.25 297.544 1136.85 298.357 1135.91 299.593L1135.88 299.613ZM1109.81 298.677C1109.11 299.607 1108.7 300.725 1108.63 301.888C1108.56 303.052 1108.84 304.21 1109.43 305.214C1110.02 306.219 1110.9 307.026 1111.95 307.533C1113 308.041 1114.17 308.225 1115.33 308.064C1116.48 307.902 1117.56 307.402 1118.43 306.626C1119.3 305.85 1119.92 304.834 1120.22 303.706C1120.51 302.577 1120.46 301.387 1120.08 300.287C1119.69 299.186 1118.99 298.224 1118.06 297.523C1117.44 297.056 1116.74 296.716 1115.99 296.521C1115.24 296.327 1114.46 296.282 1113.69 296.389C1112.93 296.496 1112.19 296.753 1111.52 297.146C1110.86 297.539 1110.27 298.059 1109.81 298.677ZM1147.18 249.096C1146.48 250.025 1146.07 251.141 1146 252.303C1145.93 253.465 1146.21 254.621 1146.81 255.624C1147.4 256.627 1148.27 257.433 1149.32 257.939C1150.37 258.445 1151.54 258.628 1152.69 258.466C1153.85 258.304 1154.93 257.804 1155.79 257.029C1156.66 256.254 1157.28 255.239 1157.57 254.112C1157.86 252.985 1157.82 251.797 1157.43 250.698C1157.05 249.599 1156.35 248.639 1155.42 247.938C1154.17 247 1152.6 246.594 1151.06 246.811C1149.51 247.028 1148.12 247.85 1147.18 249.096ZM1169.27 324.721C1168.57 325.651 1168.16 326.767 1168.09 327.929C1168.03 329.091 1168.31 330.247 1168.9 331.25C1169.49 332.253 1170.36 333.059 1171.41 333.565C1172.46 334.07 1173.63 334.254 1174.79 334.092C1175.94 333.93 1177.02 333.43 1177.89 332.655C1178.76 331.88 1179.38 330.865 1179.67 329.738C1179.96 328.611 1179.91 327.423 1179.52 326.324C1179.14 325.225 1178.44 324.265 1177.51 323.564C1176.26 322.626 1174.7 322.22 1173.15 322.437C1171.61 322.654 1170.21 323.476 1169.27 324.721ZM1143.15 323.806C1142.45 324.736 1142.04 325.852 1141.98 327.014C1141.91 328.176 1142.19 329.331 1142.78 330.333C1143.38 331.335 1144.25 332.14 1145.3 332.645C1146.35 333.15 1147.52 333.333 1148.67 333.171C1149.83 333.008 1150.9 332.508 1151.77 331.733C1152.64 330.958 1153.26 329.943 1153.55 328.817C1153.84 327.69 1153.79 326.503 1153.41 325.404C1153.03 324.306 1152.33 323.345 1151.4 322.645C1150.15 321.711 1148.58 321.308 1147.03 321.526C1145.49 321.743 1144.09 322.563 1143.15 323.806ZM1187.96 299.94C1187.26 300.87 1186.85 301.987 1186.78 303.149C1186.72 304.311 1187 305.466 1187.59 306.468C1188.19 307.47 1189.06 308.274 1190.11 308.778C1191.16 309.282 1192.33 309.464 1193.49 309.301C1194.64 309.138 1195.72 308.636 1196.58 307.86C1197.45 307.085 1198.07 306.069 1198.36 304.942C1198.65 303.815 1198.6 302.627 1198.21 301.529C1197.83 300.431 1197.13 299.471 1196.2 298.772C1194.95 297.833 1193.38 297.428 1191.83 297.646C1190.29 297.864 1188.89 298.686 1187.95 299.933L1187.96 299.94ZM1180.52 274.225C1179.82 275.155 1179.41 276.272 1179.35 277.434C1179.28 278.596 1179.57 279.751 1180.16 280.753C1180.75 281.755 1181.63 282.559 1182.67 283.063C1183.72 283.567 1184.9 283.749 1186.05 283.586C1187.2 283.423 1188.28 282.921 1189.15 282.146C1190.01 281.37 1190.63 280.354 1190.92 279.227C1191.21 278.1 1191.16 276.912 1190.78 275.814C1190.39 274.716 1189.69 273.756 1188.76 273.057C1187.51 272.118 1185.94 271.713 1184.4 271.931C1182.85 272.149 1181.46 272.971 1180.52 274.218L1180.52 274.225ZM1161.83 299.01C1161.13 299.94 1160.72 301.056 1160.65 302.218C1160.58 303.38 1160.86 304.536 1161.45 305.539C1162.05 306.542 1162.92 307.348 1163.97 307.854C1165.02 308.359 1166.19 308.543 1167.34 308.381C1168.5 308.219 1169.58 307.719 1170.44 306.944C1171.31 306.169 1171.93 305.154 1172.22 304.027C1172.51 302.9 1172.47 301.712 1172.08 300.613C1171.7 299.514 1171 298.554 1170.07 297.853C1169.45 297.387 1168.75 297.048 1168 296.854C1167.25 296.66 1166.47 296.615 1165.71 296.723C1164.94 296.83 1164.21 297.088 1163.54 297.48C1162.87 297.873 1162.29 298.393 1161.83 299.01ZM1176.48 348.932C1175.78 349.863 1175.37 350.981 1175.3 352.145C1175.24 353.309 1175.52 354.466 1176.11 355.471C1176.7 356.475 1177.58 357.282 1178.63 357.788C1179.68 358.295 1180.85 358.478 1182.01 358.316C1183.16 358.153 1184.24 357.652 1185.11 356.875C1185.98 356.098 1186.6 355.081 1186.89 353.952C1187.18 352.823 1187.13 351.634 1186.75 350.533C1186.36 349.433 1185.66 348.472 1184.73 347.771C1183.48 346.836 1181.91 346.434 1180.37 346.65C1178.83 346.867 1177.43 347.686 1176.49 348.928L1176.48 348.932ZM1213.85 299.344C1213.14 300.275 1212.73 301.393 1212.67 302.557C1212.6 303.721 1212.88 304.878 1213.47 305.883C1214.06 306.887 1214.94 307.694 1215.99 308.2C1217.04 308.707 1218.22 308.89 1219.37 308.728C1220.53 308.565 1221.61 308.064 1222.48 307.287C1223.35 306.51 1223.97 305.493 1224.26 304.364C1224.55 303.235 1224.5 302.045 1224.11 300.945C1223.73 299.845 1223.02 298.883 1222.09 298.183C1220.84 297.246 1219.28 296.842 1217.73 297.059C1216.19 297.276 1214.79 298.096 1213.85 299.34L1213.85 299.344ZM1195.17 324.133C1194.46 325.063 1194.05 326.18 1193.98 327.344C1193.92 328.508 1194.2 329.665 1194.79 330.67C1195.38 331.675 1196.25 332.482 1197.3 332.989C1198.35 333.496 1199.53 333.681 1200.68 333.519C1201.84 333.358 1202.92 332.858 1203.79 332.082C1204.66 331.306 1205.28 330.29 1205.57 329.161C1205.86 328.033 1205.82 326.843 1205.43 325.743C1205.05 324.642 1204.35 323.68 1203.41 322.978C1202.17 322.04 1200.6 321.634 1199.06 321.849C1197.51 322.065 1196.11 322.885 1195.17 324.129L1195.17 324.133Z" fill="#3046D2"/>
<path d="M368.542 43.656L344.903 59.7528L343.963 58.369L366.199 43.2176L351.293 21.1228L352.676 20.1826L368.542 43.656ZM366.458 22.8568L365.072 23.7873L379.99 45.8891L357.752 61.0309L358.682 62.4173L382.324 46.3302L366.458 22.8568ZM380.218 25.5264L378.832 26.457L393.75 48.5588L371.504 63.7128L372.442 65.087L396.084 48.9998L380.218 25.5264ZM393.98 28.2058L392.594 29.1363L407.503 51.2407L385.264 66.3825L386.204 67.7663L409.846 51.6792L393.98 28.2058Z" fill="url(#paint0_linear_79_354)"/>
<path d="M89.1 505.53L81.91 503.47L144.83 284L152.02 286.06L89.1 505.53ZM117.52 291.58L62.76 482.58L69.98 484.64L124.73 293.64L117.52 291.58ZM90.25 299.17L43.64 461.72L50.82 463.78L97.41 301.28L90.25 299.17ZM62.94 306.72L24.53 440.72L31.72 442.78L70.15 308.78L62.94 306.72ZM35.64 314.34L5.39001 419.89L12.6 421.96L42.86 316.4L35.64 314.34ZM8.35001 321.92L-13.74 398.97L-6.53998 401.03L15.55 324.03L8.35001 321.92ZM-18.95 329.53L-32.86 378.07L-25.65 380.14L-11.73 331.6L-18.95 329.53ZM-46.23 337.1L-52 357.17L-44.81 359.24L-39.06 339.16L-46.23 337.1Z" fill="#36BA8B"/>
<path d="M1129.11 0L1076 21.24L1129.27 57.17L1129.11 0ZM1123.4 8.46L1123.51 46.46L1088.14 22.54L1123.4 8.46Z" fill="url(#paint1_linear_79_354)"/>
<path d="M1247 245.24L1316.92 301.87L1331 213L1247 245.24ZM1249 245.56L1329.71 214.56L1316.16 299.97L1249 245.56ZM1253.66 246.3L1314.49 295.56L1326.73 218.25L1253.66 246.3ZM1255.66 246.62L1325.46 219.82L1313.77 293.65L1255.66 246.62ZM1260.33 247.36L1312.05 289.24L1322.47 223.5L1260.33 247.36ZM1262.33 247.67L1321.19 225.08L1311.33 287.35L1262.33 247.67ZM1267.01 248.41L1309.63 282.93L1318.22 228.76L1267.01 248.41ZM1269.01 248.73L1316.94 230.33L1308.94 281.04L1269.01 248.73ZM1273.68 249.47L1307.22 276.62L1313.96 234.01L1273.68 249.47ZM1275.68 249.79L1312.68 235.59L1306.48 274.73L1275.68 249.79ZM1280.35 250.53L1304.78 270.32L1309.7 239.27L1280.35 250.53ZM1282.35 250.84L1308.42 240.84L1304.05 268.42L1282.35 250.84ZM1287.02 251.59L1302.36 264L1305.44 244.51L1287.02 251.59ZM1289.02 251.9L1304.16 246.09L1301.62 262.09L1289.02 251.9Z" fill="#FBAE24"/>
<path d="M109 77.07L183.28 95.59L162.18 22L109 77.07Z" fill="#FBAE24"/>
<path d="M1169.75 127.987L1192.49 104.862L1193.84 106.196L1172.43 127.948L1193.88 149.231L1192.55 150.583L1169.75 127.987ZM1176.67 150.695L1178.01 149.353L1156.55 128.07L1177.97 106.328L1176.62 104.994L1153.85 128.066L1176.67 150.695ZM1160.78 150.745L1162.11 149.403L1140.65 128.118L1162.09 106.339L1160.74 105.006L1138 128.1L1160.78 150.745ZM1144.87 150.793L1146.21 149.452L1124.7 128.112L1146.12 106.361L1144.77 105.027L1122.05 128.144L1144.87 150.793Z" fill="#F15B40"/>
<path d="M231.45 299.05C232.122 298.354 232.985 297.872 233.93 297.667C234.876 297.461 235.861 297.54 236.761 297.895C237.661 298.249 238.436 298.863 238.987 299.657C239.539 300.452 239.842 301.393 239.859 302.36C239.876 303.327 239.605 304.278 239.082 305.091C238.558 305.905 237.805 306.545 236.918 306.93C236.03 307.316 235.049 307.429 234.097 307.256C233.145 307.084 232.266 306.633 231.57 305.96C230.641 305.058 230.107 303.825 230.085 302.53C230.062 301.235 230.553 299.984 231.45 299.05ZM212.8 287.84C213.496 288.513 214.375 288.964 215.327 289.136C216.279 289.309 217.26 289.196 218.148 288.81C219.035 288.425 219.788 287.785 220.312 286.971C220.835 286.158 221.106 285.207 221.089 284.24C221.072 283.273 220.769 282.332 220.217 281.537C219.666 280.743 218.891 280.129 217.991 279.775C217.091 279.42 216.106 279.341 215.16 279.547C214.215 279.752 213.352 280.234 212.68 280.93C212.234 281.391 211.882 281.936 211.647 282.533C211.411 283.13 211.295 283.768 211.306 284.41C211.318 285.052 211.455 285.685 211.712 286.274C211.968 286.863 212.338 287.395 212.8 287.84ZM194.04 269.72C194.735 270.389 195.613 270.837 196.562 271.008C197.511 271.179 198.49 271.064 199.374 270.679C200.259 270.294 201.009 269.656 201.531 268.844C202.052 268.033 202.322 267.085 202.305 266.12C202.288 265.156 201.986 264.218 201.436 263.425C200.887 262.633 200.115 262.02 199.218 261.666C198.321 261.312 197.338 261.232 196.396 261.435C195.453 261.639 194.591 262.117 193.92 262.81C193.472 263.271 193.12 263.815 192.884 264.412C192.647 265.01 192.531 265.648 192.542 266.29C192.553 266.932 192.691 267.566 192.949 268.155C193.206 268.743 193.577 269.275 194.04 269.72ZM175.27 251.59C175.966 252.263 176.845 252.714 177.797 252.886C178.749 253.059 179.73 252.946 180.618 252.56C181.505 252.175 182.258 251.535 182.782 250.721C183.305 249.908 183.576 248.957 183.559 247.99C183.542 247.023 183.239 246.082 182.687 245.287C182.136 244.493 181.361 243.879 180.461 243.525C179.561 243.17 178.576 243.091 177.63 243.297C176.685 243.502 175.822 243.984 175.15 244.68C174.704 245.141 174.352 245.686 174.117 246.283C173.881 246.88 173.765 247.518 173.776 248.16C173.787 248.802 173.925 249.435 174.182 250.024C174.438 250.612 174.808 251.145 175.27 251.59ZM163.27 226.44C162.576 225.77 161.699 225.32 160.749 225.148C159.799 224.976 158.82 225.09 157.934 225.475C157.049 225.859 156.298 226.498 155.776 227.31C155.254 228.122 154.984 229.07 155.001 230.035C155.018 231 155.32 231.938 155.87 232.731C156.42 233.525 157.193 234.137 158.091 234.49C158.989 234.844 159.972 234.924 160.915 234.719C161.859 234.514 162.72 234.034 163.39 233.34C164.292 232.412 164.788 231.163 164.769 229.869C164.75 228.575 164.218 227.342 163.29 226.44H163.27ZM249.68 287.19C250.375 287.859 251.253 288.307 252.202 288.478C253.151 288.649 254.13 288.534 255.014 288.149C255.899 287.764 256.649 287.126 257.171 286.314C257.692 285.503 257.962 284.555 257.945 283.59C257.928 282.626 257.626 281.688 257.076 280.895C256.527 280.103 255.755 279.49 254.858 279.136C253.961 278.782 252.979 278.702 252.036 278.905C251.093 279.109 250.231 279.587 249.56 280.28C249.114 280.742 248.763 281.287 248.528 281.885C248.293 282.483 248.179 283.122 248.192 283.764C248.205 284.406 248.345 285.04 248.604 285.628C248.863 286.216 249.235 286.747 249.7 287.19H249.68ZM230.91 269.07C231.606 269.743 232.485 270.194 233.437 270.366C234.389 270.539 235.37 270.426 236.258 270.04C237.145 269.655 237.898 269.015 238.422 268.201C238.945 267.388 239.216 266.437 239.199 265.47C239.182 264.503 238.879 263.562 238.327 262.767C237.776 261.973 237.001 261.359 236.101 261.005C235.201 260.65 234.216 260.571 233.27 260.777C232.325 260.982 231.462 261.464 230.79 262.16C230.345 262.623 229.995 263.168 229.761 263.766C229.527 264.364 229.413 265.002 229.426 265.644C229.439 266.286 229.579 266.919 229.837 267.507C230.095 268.095 230.467 268.626 230.93 269.07H230.91ZM212.14 250.94C212.835 251.609 213.713 252.057 214.662 252.228C215.611 252.399 216.59 252.284 217.474 251.899C218.359 251.514 219.109 250.876 219.631 250.064C220.152 249.253 220.422 248.305 220.405 247.34C220.388 246.376 220.086 245.438 219.536 244.645C218.987 243.853 218.215 243.24 217.318 242.886C216.421 242.532 215.439 242.452 214.496 242.655C213.553 242.859 212.691 243.337 212.02 244.03C211.575 244.493 211.225 245.038 210.991 245.636C210.757 246.234 210.643 246.872 210.656 247.514C210.669 248.156 210.809 248.789 211.067 249.377C211.325 249.965 211.697 250.496 212.16 250.94H212.14ZM193.37 232.82C194.065 233.489 194.943 233.937 195.892 234.108C196.841 234.279 197.82 234.164 198.704 233.779C199.589 233.394 200.339 232.756 200.861 231.944C201.382 231.133 201.652 230.185 201.635 229.22C201.618 228.256 201.316 227.318 200.766 226.525C200.217 225.733 199.445 225.12 198.548 224.766C197.651 224.412 196.669 224.332 195.726 224.535C194.783 224.739 193.921 225.217 193.25 225.91C192.351 226.843 191.858 228.094 191.881 229.39C191.903 230.686 192.439 231.919 193.37 232.82ZM174.63 214.72C175.325 215.389 176.203 215.837 177.152 216.008C178.101 216.179 179.08 216.064 179.964 215.679C180.849 215.294 181.599 214.656 182.121 213.844C182.642 213.033 182.912 212.085 182.895 211.12C182.878 210.156 182.576 209.218 182.026 208.425C181.477 207.633 180.705 207.02 179.808 206.666C178.911 206.312 177.928 206.232 176.986 206.435C176.043 206.639 175.181 207.117 174.51 207.81C174.064 208.271 173.712 208.816 173.477 209.413C173.241 210.01 173.125 210.648 173.136 211.29C173.148 211.932 173.285 212.565 173.542 213.154C173.798 213.742 174.168 214.275 174.63 214.72ZM267.82 268.45C268.515 269.119 269.393 269.567 270.342 269.738C271.291 269.909 272.27 269.794 273.154 269.409C274.039 269.024 274.789 268.385 275.311 267.574C275.832 266.763 276.102 265.815 276.085 264.851C276.068 263.886 275.766 262.948 275.216 262.155C274.667 261.363 273.895 260.75 272.998 260.396C272.101 260.042 271.119 259.962 270.176 260.165C269.233 260.369 268.371 260.847 267.7 261.54C266.804 262.471 266.314 263.718 266.336 265.01C266.359 266.301 266.893 267.531 267.82 268.43V268.45ZM249.05 250.32C249.745 250.989 250.623 251.437 251.572 251.608C252.521 251.779 253.5 251.664 254.384 251.279C255.269 250.894 256.019 250.256 256.541 249.444C257.062 248.633 257.332 247.685 257.315 246.72C257.298 245.756 256.996 244.818 256.446 244.025C255.897 243.233 255.125 242.62 254.228 242.266C253.331 241.912 252.349 241.832 251.406 242.035C250.463 242.239 249.601 242.717 248.93 243.41C248.037 244.342 247.548 245.589 247.57 246.88C247.593 248.171 248.125 249.4 249.05 250.3V250.32ZM230.29 232.2C230.986 232.868 231.864 233.315 232.814 233.484C233.763 233.654 234.742 233.538 235.626 233.151C236.509 232.765 237.259 232.125 237.779 231.313C238.3 230.501 238.568 229.553 238.55 228.588C238.531 227.624 238.228 226.687 237.677 225.895C237.127 225.103 236.354 224.492 235.456 224.139C234.558 223.786 233.576 223.707 232.634 223.912C231.691 224.117 230.83 224.596 230.16 225.29C229.716 225.751 229.367 226.295 229.133 226.89C228.899 227.486 228.785 228.122 228.797 228.762C228.809 229.402 228.947 230.033 229.204 230.62C229.46 231.206 229.829 231.736 230.29 232.18V232.2ZM211.52 214.07C212.215 214.739 213.093 215.187 214.042 215.358C214.991 215.529 215.97 215.414 216.854 215.029C217.739 214.644 218.489 214.006 219.011 213.194C219.532 212.383 219.802 211.435 219.785 210.471C219.768 209.506 219.466 208.568 218.916 207.775C218.367 206.983 217.595 206.37 216.698 206.016C215.801 205.662 214.819 205.582 213.876 205.785C212.933 205.989 212.071 206.467 211.4 207.16C210.955 207.62 210.606 208.163 210.371 208.759C210.136 209.354 210.021 209.99 210.032 210.63C210.043 211.27 210.181 211.901 210.436 212.488C210.691 213.075 211.06 213.606 211.52 214.05V214.07ZM192.75 195.95C193.445 196.621 194.322 197.07 195.272 197.242C196.222 197.414 197.201 197.3 198.086 196.915C198.971 196.531 199.722 195.892 200.245 195.08C200.767 194.269 201.037 193.32 201.02 192.355C201.003 191.39 200.701 190.452 200.15 189.659C199.6 188.866 198.827 188.253 197.929 187.9C197.031 187.546 196.049 187.466 195.105 187.671C194.162 187.876 193.301 188.356 192.63 189.05C191.737 189.98 191.249 191.226 191.271 192.515C191.294 193.804 191.826 195.032 192.75 195.93V195.95ZM285.94 249.68C286.636 250.353 287.515 250.804 288.467 250.976C289.419 251.149 290.4 251.036 291.288 250.65C292.175 250.265 292.928 249.625 293.452 248.811C293.975 247.998 294.246 247.047 294.229 246.08C294.212 245.113 293.909 244.172 293.357 243.377C292.806 242.583 292.031 241.969 291.131 241.615C290.231 241.26 289.246 241.181 288.3 241.387C287.355 241.592 286.492 242.074 285.82 242.77C284.924 243.701 284.434 244.948 284.456 246.24C284.479 247.531 285.012 248.761 285.94 249.66V249.68ZM267.17 231.53C267.865 232.204 268.744 232.657 269.697 232.83C270.649 233.004 271.632 232.891 272.52 232.506C273.408 232.121 274.162 231.481 274.686 230.668C275.21 229.854 275.481 228.903 275.464 227.935C275.447 226.967 275.143 226.026 274.591 225.231C274.039 224.436 273.264 223.822 272.362 223.468C271.461 223.114 270.476 223.036 269.53 223.243C268.584 223.45 267.721 223.932 267.05 224.63C266.154 225.562 265.663 226.812 265.685 228.105C265.708 229.398 266.242 230.63 267.17 231.53ZM248.37 213.41C249.066 214.083 249.945 214.534 250.897 214.706C251.849 214.879 252.83 214.766 253.718 214.38C254.605 213.995 255.358 213.355 255.882 212.541C256.405 211.728 256.676 210.777 256.659 209.81C256.642 208.843 256.339 207.902 255.787 207.107C255.236 206.313 254.461 205.699 253.561 205.345C252.661 204.99 251.676 204.911 250.73 205.117C249.785 205.322 248.922 205.804 248.25 206.5C247.804 206.961 247.452 207.506 247.217 208.103C246.981 208.7 246.865 209.338 246.876 209.98C246.887 210.622 247.025 211.255 247.282 211.844C247.538 212.432 247.908 212.965 248.37 213.41ZM229.6 195.28C230.295 195.951 231.172 196.4 232.122 196.572C233.072 196.744 234.051 196.63 234.936 196.245C235.821 195.861 236.572 195.222 237.095 194.41C237.617 193.599 237.887 192.65 237.87 191.685C237.853 190.72 237.551 189.782 237 188.989C236.45 188.196 235.677 187.583 234.779 187.23C233.881 186.876 232.899 186.796 231.955 187.001C231.012 187.206 230.151 187.686 229.48 188.38C229.038 188.844 228.691 189.39 228.459 189.987C228.228 190.585 228.116 191.222 228.131 191.863C228.146 192.504 228.287 193.135 228.546 193.722C228.805 194.308 229.177 194.838 229.64 195.28H229.6ZM210.87 177.16C211.565 177.831 212.442 178.28 213.392 178.452C214.342 178.624 215.321 178.51 216.206 178.125C217.091 177.741 217.842 177.102 218.365 176.29C218.887 175.479 219.157 174.53 219.14 173.565C219.123 172.6 218.821 171.662 218.27 170.869C217.72 170.076 216.947 169.463 216.049 169.11C215.151 168.756 214.169 168.676 213.225 168.881C212.282 169.086 211.421 169.566 210.75 170.26C209.854 171.192 209.363 172.442 209.386 173.735C209.408 175.028 209.942 176.26 210.87 177.16ZM304.06 230.89C304.755 231.564 305.633 232.016 306.585 232.19C307.537 232.364 308.519 232.252 309.406 231.868C310.294 231.484 311.048 230.845 311.573 230.032C312.098 229.22 312.37 228.269 312.354 227.302C312.339 226.335 312.037 225.394 311.487 224.598C310.936 223.803 310.162 223.188 309.263 222.832C308.363 222.477 307.378 222.396 306.432 222.6C305.487 222.805 304.623 223.285 303.95 223.98C303.503 224.441 303.151 224.985 302.914 225.582C302.678 226.178 302.561 226.816 302.571 227.458C302.582 228.1 302.718 228.733 302.974 229.322C303.229 229.911 303.599 230.444 304.06 230.89ZM285.29 212.77C285.984 213.445 286.862 213.898 287.813 214.074C288.764 214.249 289.747 214.139 290.635 213.756C291.523 213.373 292.278 212.735 292.804 211.923C293.33 211.111 293.604 210.162 293.59 209.194C293.576 208.227 293.275 207.285 292.726 206.489C292.177 205.693 291.403 205.077 290.504 204.72C289.605 204.363 288.62 204.281 287.674 204.484C286.728 204.687 285.864 205.166 285.19 205.86C284.291 206.791 283.796 208.041 283.815 209.336C283.833 210.631 284.364 211.865 285.29 212.77ZM266.53 194.64C267.229 195.304 268.11 195.745 269.059 195.909C270.009 196.073 270.986 195.952 271.868 195.562C272.749 195.171 273.495 194.528 274.011 193.714C274.527 192.9 274.791 191.951 274.769 190.988C274.746 190.024 274.439 189.089 273.886 188.299C273.332 187.51 272.558 186.902 271.659 186.553C270.761 186.203 269.779 186.127 268.838 186.335C267.897 186.543 267.038 187.025 266.37 187.72C265.925 188.184 265.575 188.731 265.342 189.331C265.109 189.931 264.996 190.57 265.011 191.213C265.026 191.856 265.168 192.49 265.429 193.078C265.689 193.666 266.064 194.197 266.53 194.64ZM247.76 176.52C248.456 177.193 249.335 177.644 250.287 177.816C251.239 177.989 252.22 177.876 253.108 177.49C253.995 177.105 254.748 176.465 255.272 175.651C255.795 174.838 256.066 173.887 256.049 172.92C256.032 171.953 255.729 171.012 255.177 170.217C254.626 169.423 253.851 168.809 252.951 168.455C252.051 168.1 251.066 168.021 250.12 168.227C249.175 168.432 248.312 168.914 247.64 169.61C247.194 170.071 246.842 170.616 246.607 171.213C246.371 171.81 246.255 172.448 246.266 173.09C246.278 173.732 246.415 174.365 246.672 174.954C246.928 175.542 247.298 176.075 247.76 176.52ZM228.99 158.4C229.685 159.074 230.563 159.526 231.515 159.7C232.467 159.874 233.449 159.762 234.336 159.378C235.224 158.994 235.978 158.355 236.503 157.542C237.028 156.73 237.3 155.779 237.284 154.812C237.269 153.845 236.967 152.904 236.417 152.108C235.866 151.313 235.092 150.698 234.193 150.342C233.293 149.987 232.308 149.906 231.362 150.11C230.417 150.315 229.553 150.795 228.88 151.49C227.982 152.423 227.489 153.673 227.51 154.968C227.53 156.263 228.063 157.497 228.99 158.4Z" fill="#FBAE24"/>
<path d="M500.24 376L441 417.24L516.7 446.29L500.24 376ZM495.62 388L506.54 434.69L456.29 415.4L495.62 388Z" fill="#36BA8B"/>
<path d="M1289 156.17L1440.86 106.83L1322.2 0L1289 156.17ZM1291.41 153.49L1323.32 3.42L1437.32 106.08L1291.41 153.49ZM1297.03 147.25L1429.12 104.34L1325.86 11.39L1297.03 147.25ZM1299.45 144.58L1327.02 14.83L1425.61 103.59L1299.45 144.58ZM1305.05 138.34L1417.39 101.84L1329.61 22.84L1305.05 138.34ZM1307.46 135.67L1330.73 26.24L1413.86 101.1L1307.46 135.67ZM1313.08 129.43L1405.66 99.35L1333.32 34.22L1313.08 129.43ZM1315.49 126.75L1334.43 37.64L1402.13 98.64L1315.49 126.75ZM1321.1 120.52L1393.92 96.85L1337.03 45.62L1321.1 120.52ZM1323.51 117.84L1338.14 49.05L1390.4 96.1L1323.51 117.84ZM1329.13 111.61L1382.19 94.36L1340.74 57L1329.13 111.61ZM1331.54 108.93L1341.86 60.46L1378.69 93.62L1331.54 108.93ZM1337.16 102.69L1370.46 91.87L1344.46 68.43L1337.16 102.69ZM1339.57 100.01L1345.57 71.85L1366.96 91.12L1339.57 100.01Z" fill="#435AA8"/>
<defs>
<linearGradient id="paint0_linear_79_354" x1="347.211" y1="39.903" x2="409.397" y2="51.9908" gradientUnits="userSpaceOnUse">
<stop stop-color="#00A69D"/>
<stop offset="1" stop-color="#1FE2D9"/>
</linearGradient>
<linearGradient id="paint1_linear_79_354" x1="1094.75" y1="5.2625" x2="1148.08" y2="41.2481" gradientUnits="userSpaceOnUse">
<stop stop-color="#00A69D"/>
<stop offset="1" stop-color="#1FE2D9"/>
</linearGradient>
</defs>
</svg>
