<svg width="95" height="96" viewBox="0 0 95 96" fill="none" xmlns="http://www.w3.org/2000/svg">
<g filter="url(#filter0_d_165_201)">
<circle cx="22.5" cy="22.5" r="22.5" transform="matrix(-1 0 0 1 70 20.0793)" fill="white"/>
</g>
<path d="M53.4141 54.8073C53.789 54.4323 53.9996 53.9237 53.9996 53.3933C53.9996 52.863 53.789 52.3544 53.4141 51.9793L43.5141 42.0793L53.4141 32.1793C53.7784 31.8021 53.98 31.2969 53.9754 30.7725C53.9709 30.2481 53.7605 29.7465 53.3897 29.3757C53.0189 29.0049 52.5173 28.7946 51.9929 28.79C51.4685 28.7854 50.9633 28.987 50.5861 29.3513L39.2721 40.6653C38.8971 41.0404 38.6865 41.549 38.6865 42.0793C38.6865 42.6097 38.8971 43.1183 39.2721 43.4933L50.5861 54.8073C50.9611 55.1823 51.4697 55.3929 52.0001 55.3929C52.5304 55.3929 53.039 55.1823 53.4141 54.8073Z" fill="#333333"/>
<defs>
<filter id="filter0_d_165_201" x="0" y="0.0793457" width="95" height="95" filterUnits="userSpaceOnUse" color-interpolation-filters="sRGB">
<feFlood flood-opacity="0" result="BackgroundImageFix"/>
<feColorMatrix in="SourceAlpha" type="matrix" values="0 0 0 0 0 0 0 0 0 0 0 0 0 0 0 0 0 0 127 0" result="hardAlpha"/>
<feOffset dy="5"/>
<feGaussianBlur stdDeviation="12.5"/>
<feComposite in2="hardAlpha" operator="out"/>
<feColorMatrix type="matrix" values="0 0 0 0 0 0 0 0 0 0 0 0 0 0 0 0 0 0 0.08 0"/>
<feBlend mode="normal" in2="BackgroundImageFix" result="effect1_dropShadow_165_201"/>
<feBlend mode="normal" in="SourceGraphic" in2="effect1_dropShadow_165_201" result="shape"/>
</filter>
</defs>
</svg>
